<?xml version="1.0" encoding="UTF-8" standalone="no"?>
<!-- Created with Inkscape (http://www.inkscape.org/) -->

<svg
   xmlns:dc="http://purl.org/dc/elements/1.1/"
   xmlns:cc="http://creativecommons.org/ns#"
   xmlns:rdf="http://www.w3.org/1999/02/22-rdf-syntax-ns#"
   xmlns:svg="http://www.w3.org/2000/svg"
   xmlns="http://www.w3.org/2000/svg"
   xmlns:xlink="http://www.w3.org/1999/xlink"
   xmlns:sodipodi="http://sodipodi.sourceforge.net/DTD/sodipodi-0.dtd"
   xmlns:inkscape="http://www.inkscape.org/namespaces/inkscape"
   width="146.67114"
   height="146.67114"
   id="svg2"
   version="1.1"
   inkscape:version="0.47 r22583"
   sodipodi:docname="logo.svg"
   style="display:inline"
   inkscape:export-filename="/home/bjoern/projekt/logo.png"
   inkscape:export-xdpi="42.917557"
   inkscape:export-ydpi="42.917557">
  <defs
     id="defs4">
    <linearGradient
       inkscape:collect="always"
       id="linearGradient3634">
      <stop
         style="stop-color:#2e3587;stop-opacity:1;"
         offset="0"
         id="stop3636" />
      <stop
         style="stop-color:#1d1d2f;stop-opacity:1"
         offset="1"
         id="stop3638" />
    </linearGradient>
    <linearGradient
       inkscape:collect="always"
       id="linearGradient3626">
      <stop
         style="stop-color:#000000;stop-opacity:1;"
         offset="0"
         id="stop3628" />
      <stop
         style="stop-color:#000000;stop-opacity:0;"
         offset="1"
         id="stop3630" />
    </linearGradient>
    <inkscape:perspective
       sodipodi:type="inkscape:persp3d"
       inkscape:vp_x="0 : 526.18109 : 1"
       inkscape:vp_y="0 : 1000 : 0"
       inkscape:vp_z="744.09448 : 526.18109 : 1"
       inkscape:persp3d-origin="372.04724 : 350.78739 : 1"
       id="perspective10" />
    <inkscape:perspective
       id="perspective2825"
       inkscape:persp3d-origin="0.5 : 0.33333333 : 1"
       inkscape:vp_z="1 : 0.5 : 1"
       inkscape:vp_y="0 : 1000 : 0"
       inkscape:vp_x="0 : 0.5 : 1"
       sodipodi:type="inkscape:persp3d" />
    <linearGradient
       inkscape:collect="always"
       xlink:href="#linearGradient3626"
       id="linearGradient3632"
       x1="431.7901"
       y1="265.41077"
       x2="352.50436"
       y2="231.49051"
       gradientUnits="userSpaceOnUse" />
    <linearGradient
       inkscape:collect="always"
       xlink:href="#linearGradient3634"
       id="linearGradient3640"
       x1="206.18317"
       y1="466.15689"
       x2="145.10905"
       y2="500.61078"
       gradientUnits="userSpaceOnUse" />
    <inkscape:perspective
       id="perspective3658"
       inkscape:persp3d-origin="0.5 : 0.33333333 : 1"
       inkscape:vp_z="1 : 0.5 : 1"
       inkscape:vp_y="0 : 1000 : 0"
       inkscape:vp_x="0 : 0.5 : 1"
       sodipodi:type="inkscape:persp3d" />
    <linearGradient
       inkscape:collect="always"
       xlink:href="#linearGradient3634-9"
       id="linearGradient3640-4"
       x1="206.18317"
       y1="466.15689"
       x2="145.10905"
       y2="500.61078"
       gradientUnits="userSpaceOnUse" />
    <linearGradient
       inkscape:collect="always"
       id="linearGradient3634-9">
      <stop
         style="stop-color:#2e3587;stop-opacity:1;"
         offset="0"
         id="stop3636-9" />
      <stop
         style="stop-color:#1d1d2f;stop-opacity:1"
         offset="1"
         id="stop3638-4" />
    </linearGradient>
    <linearGradient
       inkscape:collect="always"
       xlink:href="#linearGradient3634-9"
       id="linearGradient3666"
       x1="206.18317"
       y1="466.15689"
       x2="145.10905"
       y2="500.61078"
       gradientUnits="userSpaceOnUse" />
    <linearGradient
       gradientTransform="translate(18.187425,23.483614)"
       y2="500.61078"
       x2="145.10905"
       y1="466.15689"
       x1="206.18317"
       gradientUnits="userSpaceOnUse"
       id="linearGradient3676"
       xlink:href="#linearGradient3634-9"
       inkscape:collect="always" />
    <filter
       inkscape:collect="always"
       id="filter3711"
       color-interpolation-filters="sRGB">
      <feGaussianBlur
         inkscape:collect="always"
         stdDeviation="3.0747749"
         id="feGaussianBlur3713" />
    </filter>
    <inkscape:perspective
       id="perspective3723"
       inkscape:persp3d-origin="0.5 : 0.33333333 : 1"
       inkscape:vp_z="1 : 0.5 : 1"
       inkscape:vp_y="0 : 1000 : 0"
       inkscape:vp_x="0 : 0.5 : 1"
       sodipodi:type="inkscape:persp3d" />
    <linearGradient
       inkscape:collect="always"
       xlink:href="#linearGradient3626-5"
       id="linearGradient3632-3"
       x1="431.7901"
       y1="265.41077"
       x2="352.50436"
       y2="231.49051"
       gradientUnits="userSpaceOnUse" />
    <linearGradient
       inkscape:collect="always"
       id="linearGradient3626-5">
      <stop
         style="stop-color:#000000;stop-opacity:1;"
         offset="0"
         id="stop3628-7" />
      <stop
         style="stop-color:#000000;stop-opacity:0;"
         offset="1"
         id="stop3630-0" />
    </linearGradient>
    <linearGradient
       gradientTransform="translate(14.134512,24.514802)"
       y2="231.49051"
       x2="352.50436"
       y1="265.41077"
       x1="431.7901"
       gradientUnits="userSpaceOnUse"
       id="linearGradient3732"
       xlink:href="#linearGradient3626-5"
       inkscape:collect="always" />
    <filter
       inkscape:collect="always"
       id="filter3781"
       x="-0.13646957"
       width="1.2729391"
       y="-0.28146321"
       height="1.5629264"
       color-interpolation-filters="sRGB">
      <feGaussianBlur
         inkscape:collect="always"
         stdDeviation="7.8317729"
         id="feGaussianBlur3783" />
    </filter>
  </defs>
  <sodipodi:namedview
     id="base"
     pagecolor="#ffffff"
     bordercolor="#666666"
     borderopacity="1.0"
     inkscape:pageopacity="0.0"
     inkscape:pageshadow="2"
     inkscape:zoom="2.8"
     inkscape:cx="88.120586"
     inkscape:cy="72.379332"
     inkscape:document-units="px"
     inkscape:current-layer="layer2"
     showgrid="false"
     inkscape:window-width="1280"
     inkscape:window-height="752"
     inkscape:window-x="-4"
     inkscape:window-y="-3"
     inkscape:window-maximized="1" />
  <metadata
     id="metadata7">
    <rdf:RDF>
      <cc:Work
         rdf:about="">
        <dc:format>image/svg+xml</dc:format>
        <dc:type
           rdf:resource="http://purl.org/dc/dcmitype/StillImage" />
        <dc:title></dc:title>
      </cc:Work>
    </rdf:RDF>
  </metadata>
  <g
     inkscape:groupmode="layer"
     id="layer3"
     inkscape:label="viereck"
     style="display:none"
     transform="translate(-347.91441,-215.63376)"
     sodipodi:insensitive="true">
    <rect
       style="fill:#dfee0a;fill-opacity:1;fill-rule:nonzero;stroke:#d05959;stroke-width:1.31400001;stroke-miterlimit:4;stroke-opacity:1;stroke-dasharray:none;stroke-dashoffset:0"
       id="rect3622"
       width="145.35715"
       height="145.35715"
       x="348.57141"
       y="216.29076" />
  </g>
  <g
     inkscape:label="Ebene 1"
     inkscape:groupmode="layer"
     id="layer1"
     transform="translate(-347.91441,-215.63376)">
    <text
       xml:space="preserve"
       style="font-size:15.61982632px;font-style:normal;font-weight:normal;text-align:center;text-anchor:middle;fill:url(#linearGradient3640);fill-opacity:1;stroke:#0c0c11;stroke-width:0.5;stroke-miterlimit:4;stroke-opacity:1;stroke-dasharray:none;display:inline;font-family:helvetica;-inkscape-font-specification:helvetica"
       x="184.99458"
       y="507.49771"
       id="text2835"
       transform="matrix(0.83979684,-0.54290079,0.54290079,0.83979684,0,0)"><tspan
         sodipodi:role="line"
         id="tspan2837"
         x="184.99458"
         y="507.49771"
         style="font-size:68.15924072px;fill:url(#linearGradient3640);fill-opacity:1;stroke:#0c0c11;stroke-width:0.5;stroke-miterlimit:4;stroke-opacity:1;stroke-dasharray:none">htm</tspan></text>
    <text
       xml:space="preserve"
       style="font-size:15.61982632px;font-style:normal;font-weight:normal;text-align:center;text-anchor:middle;fill:url(#linearGradient3676);fill-opacity:1;stroke:#0c0c11;stroke-width:0.5;stroke-miterlimit:4;stroke-opacity:1;stroke-dasharray:none;display:inline;filter:url(#filter3711);font-family:helvetica;-inkscape-font-specification:helvetica"
       x="203.18201"
       y="530.98132"
       id="text2835-5"
       transform="matrix(0.83979684,-0.54290079,0.54290079,0.83979684,-14.642857,-5.3571428)"><tspan
         sodipodi:role="line"
         id="tspan2837-9"
         x="203.18201"
         y="530.98132"
         style="font-size:68.15924072px;fill:url(#linearGradient3676);fill-opacity:1;stroke:#0c0c11;stroke-width:0.5;stroke-miterlimit:4;stroke-opacity:1;stroke-dasharray:none">htm</tspan></text>
  </g>
  <g
     inkscape:groupmode="layer"
     id="layer2"
     inkscape:label="orig"
     style="display:inline"
     transform="translate(-347.91441,-215.63376)">
    <path
       style="fill:url(#linearGradient3632);fill-opacity:1;stroke:#000000;stroke-width:0.16;stroke-miterlimit:4;stroke-opacity:1;stroke-dasharray:none"
       d="m 417.69487,274.42084 0,-24.38018 16.43012,0 16.43012,0 0,2.61835 0,2.61835 -13.5151,0.29667 -13.5151,0.29667 0,7.42006 0,7.42005 13.5151,0.29668 13.5151,0.29666 0,2.58669 0,2.58668 -13.5151,0.29667 -13.5151,0.29667 0,7.95006 0,7.95006 14.57511,0.29492 14.57511,0.29491 0,2.62011 0,2.6201 -17.49013,0 -17.49013,0 0,-24.38018 z m -64.66049,-18.02013 0,-24.38019 3.18003,0 3.18002,0 0,21.73017 0,21.73016 12.19009,0 12.19009,0 0,2.65002 0,2.65002 -15.37011,0 -15.37012,0 0,-24.38018 z m 45.58035,2.65002 0,-21.73017 -7.95006,0 c -7.77339,0 -7.95006,-0.0589 -7.95006,-2.65002 l 0,-2.65002 19.08014,0 19.08014,0 0,2.65002 c 0,2.59113 -0.17667,2.65002 -7.95006,2.65002 l -7.95006,0 0,21.73017 0,21.73016 -3.18002,0 -3.18002,0 0,-21.73016 z m 50.88038,21.24536 c 0,-0.26663 3.76494,-5.87142 8.36653,-12.45509 l 8.36654,-11.9703 -7.83653,-11.3482 c -9.07265,-13.13824 -8.85058,-12.50687 -4.39151,-12.48534 3.16403,0.0153 3.95554,0.79681 9.70397,9.58185 l 6.25894,9.56523 6.34561,-9.58186 c 5.93699,-8.96481 6.57911,-9.58186 9.97138,-9.58186 l 3.62576,0 -8.01526,11.56602 c -9.62792,13.89308 -9.68477,10.57951 0.4304,25.08391 l 8.44565,12.11044 -3.94061,-0.002 c -3.82499,-0.002 -4.1317,-0.30218 -10.45206,-10.23317 l -6.51144,-10.23122 -6.73866,10.20807 c -6.20686,9.40244 -7.01054,10.21003 -10.18369,10.23314 -1.89476,0.0138 -3.44502,-0.19307 -3.44502,-0.45971 z m -87.5291,-16.2282 c 11.62536,-36.62826 14.03457,-38.19017 22.45418,-14.55724 3.11558,8.74507 5.67588,16.01937 5.68957,16.16513 0.30974,3.29677 -5.25964,-0.66371 -6.33515,-4.50504 l -1.33552,-4.77003 -6.60828,0 -6.60828,0 -1.8217,4.77003 c -1.83136,4.79535 -6.89379,7.494 -5.43482,2.89715 z m 18.36638,-13.23223 c -0.26896,-0.72875 -1.32656,-3.87211 -2.35023,-6.98525 -2.08072,-6.32777 -2.70852,-6.16541 -5.19674,1.34404 -2.34042,7.06337 -2.38437,6.96622 3.15254,6.96622 3.4609,0 4.741,-0.38598 4.39443,-1.32501 z"
       id="path2833" />
    <path
       style="fill:url(#linearGradient3732);fill-opacity:1;stroke:#000000;stroke-width:0.16;stroke-miterlimit:4;stroke-opacity:1;stroke-dasharray:none;display:inline;filter:url(#filter3781)"
       d="m 431.82938,298.93564 0,-24.38018 16.43012,0 16.43012,0 0,2.61835 0,2.61835 -13.5151,0.29667 -13.5151,0.29667 0,7.42006 0,7.42005 13.5151,0.29668 13.5151,0.29666 0,2.58669 0,2.58668 -13.5151,0.29667 -13.5151,0.29667 0,7.95006 0,7.95006 14.57511,0.29492 14.57511,0.29491 0,2.62011 0,2.6201 -17.49013,0 -17.49013,0 0,-24.38018 z m -64.66049,-18.02013 0,-24.38019 3.18003,0 3.18002,0 0,21.73017 0,21.73016 12.19009,0 12.19009,0 0,2.65002 0,2.65002 -15.37011,0 -15.37012,0 0,-24.38018 z m 45.58035,2.65002 0,-21.73017 -7.95006,0 c -7.77339,0 -7.95006,-0.0589 -7.95006,-2.65002 l 0,-2.65002 19.08014,0 19.08014,0 0,2.65002 c 0,2.59113 -0.17667,2.65002 -7.95006,2.65002 l -7.95006,0 0,21.73017 0,21.73016 -3.18002,0 -3.18002,0 0,-21.73016 z m 50.88038,21.24536 c 0,-0.26663 3.76494,-5.87142 8.36653,-12.45509 l 8.36654,-11.9703 -7.83653,-11.3482 c -9.07265,-13.13824 -8.85058,-12.50687 -4.39151,-12.48534 3.16403,0.0153 3.95554,0.79681 9.70397,9.58185 l 6.25894,9.56523 6.34561,-9.58186 c 5.93699,-8.96481 6.57911,-9.58186 9.97138,-9.58186 l 3.62576,0 -8.01526,11.56602 c -9.62792,13.89308 -9.68477,10.57951 0.4304,25.08391 l 8.44565,12.11044 -3.94061,-0.002 c -3.82499,-0.002 -4.1317,-0.30218 -10.45206,-10.23317 l -6.51144,-10.23122 -6.73866,10.20807 c -6.20686,9.40244 -7.01054,10.21003 -10.18369,10.23314 -1.89476,0.0138 -3.44502,-0.19307 -3.44502,-0.45971 z m -87.5291,-16.2282 c 11.62536,-36.62826 14.03457,-38.19017 22.45418,-14.55724 3.11558,8.74507 5.67588,16.01937 5.68957,16.16513 0.30974,3.29677 -5.25964,-0.66371 -6.33515,-4.50504 l -1.33552,-4.77003 -6.60828,0 -6.60828,0 -1.8217,4.77003 c -1.83136,4.79535 -6.89379,7.494 -5.43482,2.89715 z m 18.36638,-13.23223 c -0.26896,-0.72875 -1.32656,-3.87211 -2.35023,-6.98525 -2.08072,-6.32777 -2.70852,-6.16541 -5.19674,1.34404 -2.34042,7.06337 -2.38437,6.96622 3.15254,6.96622 3.4609,0 4.741,-0.38598 4.39443,-1.32501 z"
       id="path2833-8" />
  </g>
</svg>
